<svg width="200" height="63" viewBox="0 0 200 63" fill="none" xmlns="http://www.w3.org/2000/svg">
<path d="M12.3166 1.4H37.6066V9.26H21.2566V17.33H37.4566V24.95H21.2566V33.14H37.6066V41H12.3166V1.4ZM51.8373 15.65C53.4573 15.65 54.9373 15.79 56.2773 16.07C57.6173 16.33 58.7373 16.63 59.6373 16.97C60.5573 17.31 61.1473 17.59 61.4073 17.81L58.4373 23.18C58.0573 22.9 57.3473 22.54 56.3073 22.1C55.2873 21.66 54.1473 21.44 52.8873 21.44C51.9273 21.44 51.1173 21.59 50.4573 21.89C49.7973 22.17 49.4673 22.62 49.4673 23.24C49.4673 23.86 49.8273 24.36 50.5473 24.74C51.2873 25.1 52.3473 25.42 53.7273 25.7C54.9273 25.94 56.1473 26.32 57.3873 26.84C58.6273 27.36 59.6573 28.13 60.4773 29.15C61.3173 30.15 61.7373 31.49 61.7373 33.17C61.7373 34.89 61.3673 36.31 60.6273 37.43C59.8873 38.55 58.9073 39.42 57.6873 40.04C56.4673 40.66 55.1473 41.09 53.7273 41.33C52.3073 41.59 50.9273 41.72 49.5873 41.72C47.7073 41.72 46.0673 41.55 44.6673 41.21C43.2873 40.87 42.1673 40.48 41.3073 40.04C40.4473 39.6 39.8473 39.25 39.5073 38.99L42.4473 32.99C42.9673 33.43 43.8173 33.93 44.9973 34.49C46.1773 35.03 47.4273 35.3 48.7473 35.3C50.0273 35.3 51.0173 35.11 51.7173 34.73C52.4173 34.35 52.7673 33.85 52.7673 33.23C52.7673 32.73 52.5973 32.33 52.2573 32.03C51.9173 31.73 51.4373 31.47 50.8173 31.25C50.1973 31.03 49.4473 30.83 48.5673 30.65C47.7673 30.49 46.9173 30.24 46.0173 29.9C45.1173 29.56 44.2673 29.1 43.4673 28.52C42.6673 27.92 42.0173 27.17 41.5173 26.27C41.0173 25.37 40.7673 24.28 40.7673 23C40.7673 21.36 41.2973 20 42.3573 18.92C43.4173 17.84 44.7873 17.03 46.4673 16.49C48.1473 15.93 49.9373 15.65 51.8373 15.65ZM75.5186 41.72C72.8186 41.72 70.4186 41.17 68.3186 40.07C66.2386 38.95 64.5986 37.42 63.3986 35.48C62.2186 33.52 61.6286 31.28 61.6286 28.76C61.6286 26.24 62.2186 24 63.3986 22.04C64.5986 20.06 66.2386 18.5 68.3186 17.36C70.4186 16.22 72.8186 15.65 75.5186 15.65C78.2186 15.65 80.5986 16.22 82.6586 17.36C84.7186 18.5 86.3286 20.06 87.4886 22.04C88.6486 24 89.2286 26.24 89.2286 28.76C89.2286 31.28 88.6486 33.52 87.4886 35.48C86.3286 37.42 84.7186 38.95 82.6586 40.07C80.5986 41.17 78.2186 41.72 75.5186 41.72ZM75.5186 34.22C76.5586 34.22 77.4586 33.99 78.2186 33.53C78.9786 33.07 79.5686 32.42 79.9886 31.58C80.4086 30.74 80.6186 29.79 80.6186 28.73C80.6186 27.65 80.4086 26.69 79.9886 25.85C79.5686 25.01 78.9786 24.35 78.2186 23.87C77.4586 23.39 76.5586 23.15 75.5186 23.15C74.4786 23.15 73.5686 23.39 72.7886 23.87C72.0286 24.35 71.4286 25.01 70.9886 25.85C70.5686 26.69 70.3586 27.65 70.3586 28.73C70.3586 29.79 70.5686 30.74 70.9886 31.58C71.4286 32.42 72.0286 33.07 72.7886 33.53C73.5686 33.99 74.4786 34.22 75.5186 34.22ZM88.2747 16.37H92.4747V6.26H101.505V16.37H107.025V23.87H101.505V30.74C101.505 31.76 101.655 32.59 101.955 33.23C102.255 33.85 102.805 34.16 103.605 34.16C104.145 34.16 104.605 34.04 104.985 33.8C105.365 33.56 105.595 33.4 105.675 33.32L108.795 39.8C108.655 39.92 108.215 40.14 107.475 40.46C106.755 40.78 105.835 41.07 104.715 41.33C103.595 41.59 102.345 41.72 100.965 41.72C98.5047 41.72 96.4747 41.03 94.8747 39.65C93.2747 38.25 92.4747 36.1 92.4747 33.2V23.87H88.2747V16.37ZM115.832 30.62C115.892 31.5 116.172 32.28 116.672 32.96C117.172 33.64 117.862 34.18 118.742 34.58C119.642 34.96 120.702 35.15 121.922 35.15C123.082 35.15 124.122 35.03 125.042 34.79C125.982 34.55 126.792 34.25 127.472 33.89C128.172 33.53 128.712 33.16 129.092 32.78L132.632 38.42C132.132 38.96 131.422 39.49 130.502 40.01C129.602 40.51 128.412 40.92 126.932 41.24C125.452 41.56 123.582 41.72 121.322 41.72C118.602 41.72 116.182 41.21 114.062 40.19C111.942 39.17 110.272 37.67 109.052 35.69C107.832 33.71 107.222 31.29 107.222 28.43C107.222 26.03 107.742 23.87 108.782 21.95C109.842 20.01 111.372 18.48 113.372 17.36C115.372 16.22 117.782 15.65 120.602 15.65C123.282 15.65 125.602 16.14 127.562 17.12C129.542 18.1 131.062 19.56 132.122 21.5C133.202 23.42 133.742 25.82 133.742 28.7C133.742 28.86 133.732 29.18 133.712 29.66C133.712 30.14 133.692 30.46 133.652 30.62H115.832ZM125.162 25.85C125.142 25.21 124.972 24.58 124.652 23.96C124.332 23.32 123.852 22.8 123.212 22.4C122.572 21.98 121.752 21.77 120.752 21.77C119.752 21.77 118.902 21.97 118.202 22.37C117.522 22.75 117.002 23.25 116.642 23.87C116.282 24.49 116.082 25.15 116.042 25.85H125.162ZM143.194 41H134.074V16.37H143.194V20.18H143.044C143.204 19.72 143.594 19.14 144.214 18.44C144.834 17.72 145.704 17.08 146.824 16.52C147.944 15.94 149.314 15.65 150.934 15.65C152.074 15.65 153.124 15.83 154.084 16.19C155.044 16.53 155.744 16.86 156.184 17.18L152.644 24.59C152.364 24.25 151.864 23.9 151.144 23.54C150.444 23.16 149.564 22.97 148.504 22.97C147.284 22.97 146.274 23.28 145.474 23.9C144.694 24.52 144.114 25.27 143.734 26.15C143.374 27.03 143.194 27.86 143.194 28.64V41ZM155.343 41V16.37H164.463V41H155.343ZM160.023 11.3C158.583 11.3 157.363 10.8 156.363 9.8C155.363 8.78 154.863 7.57 154.863 6.17C154.863 4.77 155.363 3.56 156.363 2.54C157.383 1.5 158.603 0.979997 160.023 0.979997C160.963 0.979997 161.823 1.22 162.603 1.7C163.383 2.16 164.013 2.78 164.493 3.56C164.973 4.34 165.213 5.21 165.213 6.17C165.213 7.57 164.703 8.78 163.683 9.8C162.663 10.8 161.443 11.3 160.023 11.3ZM180.497 34.55C181.637 34.55 182.577 34.36 183.317 33.98C184.057 33.58 184.557 33.26 184.817 33.02L188.987 39.2C188.667 39.46 188.117 39.8 187.337 40.22C186.557 40.62 185.577 40.97 184.397 41.27C183.237 41.57 181.907 41.72 180.407 41.72C177.587 41.72 175.107 41.19 172.967 40.13C170.827 39.05 169.157 37.53 167.957 35.57C166.777 33.61 166.187 31.31 166.187 28.67C166.187 26.01 166.777 23.71 167.957 21.77C169.157 19.83 170.827 18.33 172.967 17.27C175.107 16.19 177.587 15.65 180.407 15.65C181.887 15.65 183.207 15.81 184.367 16.13C185.547 16.43 186.537 16.78 187.337 17.18C188.137 17.56 188.697 17.89 189.017 18.17L184.757 24.41C184.617 24.27 184.357 24.07 183.977 23.81C183.617 23.55 183.147 23.32 182.567 23.12C181.987 22.92 181.297 22.82 180.497 22.82C179.517 22.82 178.597 23.07 177.737 23.57C176.897 24.07 176.217 24.76 175.697 25.64C175.177 26.52 174.917 27.53 174.917 28.67C174.917 29.81 175.177 30.83 175.697 31.73C176.217 32.61 176.897 33.3 177.737 33.8C178.597 34.3 179.517 34.55 180.497 34.55Z" fill="#1F2937"/>
<g clip-path="url(#clip0_0_1)">
<rect width="117" height="3" transform="translate(0 54.5)" fill="#1F2937"/>
<path d="M131.496 61C131.272 61 131.09 60.9347 130.95 60.804C130.819 60.664 130.754 60.4913 130.754 60.286V51.9H132.252V60.286C132.252 60.4913 132.177 60.664 132.028 60.804C131.888 60.9347 131.71 61 131.496 61ZM128.318 52.544C128.122 52.544 127.954 52.4833 127.814 52.362C127.674 52.2313 127.604 52.0633 127.604 51.858C127.604 51.662 127.674 51.5033 127.814 51.382C127.954 51.2607 128.122 51.2 128.318 51.2H134.688C134.884 51.2 135.047 51.2653 135.178 51.396C135.318 51.5173 135.388 51.676 135.388 51.872C135.388 52.0773 135.318 52.2407 135.178 52.362C135.047 52.4833 134.884 52.544 134.688 52.544H128.318ZM145.084 61C144.878 61 144.71 60.9347 144.58 60.804C144.449 60.664 144.384 60.4913 144.384 60.286V54.35C144.384 54.1447 144.449 53.9767 144.58 53.846C144.71 53.706 144.878 53.636 145.084 53.636C145.28 53.636 145.443 53.706 145.574 53.846C145.714 53.9767 145.784 54.1447 145.784 54.35V55.918L145.644 55.316C145.718 55.0547 145.83 54.812 145.98 54.588C146.138 54.364 146.325 54.168 146.54 54C146.754 53.832 146.992 53.7013 147.254 53.608C147.524 53.5147 147.804 53.468 148.094 53.468C148.336 53.468 148.546 53.5333 148.724 53.664C148.901 53.7947 148.99 53.958 148.99 54.154C148.99 54.406 148.924 54.5927 148.794 54.714C148.663 54.826 148.518 54.882 148.36 54.882C148.22 54.882 148.084 54.854 147.954 54.798C147.823 54.7327 147.669 54.7 147.492 54.7C147.296 54.7 147.095 54.7513 146.89 54.854C146.684 54.9567 146.498 55.1107 146.33 55.316C146.162 55.512 146.026 55.7453 145.924 56.016C145.83 56.2867 145.784 56.59 145.784 56.926V60.286C145.784 60.4913 145.714 60.664 145.574 60.804C145.443 60.9347 145.28 61 145.084 61ZM164.505 53.524C164.711 53.524 164.879 53.594 165.009 53.734C165.14 53.8647 165.205 54.0327 165.205 54.238V60.286C165.205 60.4913 165.14 60.664 165.009 60.804C164.879 60.9347 164.711 61 164.505 61C164.309 61 164.141 60.9347 164.001 60.804C163.871 60.664 163.805 60.4913 163.805 60.286V59.278L164.099 59.32C164.099 59.488 164.029 59.6747 163.889 59.88C163.759 60.0853 163.577 60.286 163.343 60.482C163.11 60.6687 162.835 60.8273 162.517 60.958C162.2 61.0793 161.859 61.14 161.495 61.14C160.851 61.14 160.273 60.9767 159.759 60.65C159.246 60.314 158.84 59.8567 158.541 59.278C158.243 58.6993 158.093 58.0413 158.093 57.304C158.093 56.548 158.243 55.8853 158.541 55.316C158.84 54.7373 159.241 54.2847 159.745 53.958C160.259 53.6313 160.828 53.468 161.453 53.468C161.855 53.468 162.223 53.5333 162.559 53.664C162.905 53.7947 163.203 53.9627 163.455 54.168C163.707 54.3733 163.899 54.5927 164.029 54.826C164.169 55.05 164.239 55.2647 164.239 55.47L163.805 55.512V54.238C163.805 54.042 163.871 53.874 164.001 53.734C164.141 53.594 164.309 53.524 164.505 53.524ZM161.649 59.852C162.088 59.852 162.475 59.74 162.811 59.516C163.147 59.292 163.409 58.9887 163.595 58.606C163.782 58.214 163.875 57.78 163.875 57.304C163.875 56.8187 163.782 56.3847 163.595 56.002C163.409 55.6193 163.147 55.316 162.811 55.092C162.475 54.868 162.088 54.756 161.649 54.756C161.22 54.756 160.837 54.868 160.501 55.092C160.175 55.316 159.913 55.6193 159.717 56.002C159.531 56.3847 159.437 56.8187 159.437 57.304C159.437 57.78 159.531 58.214 159.717 58.606C159.913 58.9887 160.175 59.292 160.501 59.516C160.837 59.74 161.22 59.852 161.649 59.852ZM181.601 50.64C181.806 50.64 181.974 50.7053 182.105 50.836C182.235 50.9667 182.301 51.1393 182.301 51.354V60.286C182.301 60.4913 182.235 60.664 182.105 60.804C181.974 60.9347 181.806 61 181.601 61C181.405 61 181.237 60.9347 181.097 60.804C180.966 60.664 180.901 60.4913 180.901 60.286V59.278L181.195 59.292C181.195 59.46 181.125 59.6513 180.985 59.866C180.854 60.0713 180.672 60.272 180.439 60.468C180.205 60.664 179.93 60.8273 179.613 60.958C179.295 61.0793 178.955 61.14 178.591 61.14C177.947 61.14 177.368 60.9767 176.855 60.65C176.341 60.314 175.935 59.8613 175.637 59.292C175.338 58.7133 175.189 58.0507 175.189 57.304C175.189 56.5573 175.338 55.8993 175.637 55.33C175.935 54.7513 176.337 54.2987 176.841 53.972C177.354 53.636 177.923 53.468 178.549 53.468C178.941 53.468 179.305 53.5333 179.641 53.664C179.986 53.7947 180.285 53.9627 180.537 54.168C180.789 54.3733 180.985 54.5927 181.125 54.826C181.265 55.05 181.335 55.2647 181.335 55.47L180.901 55.512V51.354C180.901 51.1487 180.966 50.9807 181.097 50.85C181.237 50.71 181.405 50.64 181.601 50.64ZM178.745 59.852C179.193 59.852 179.58 59.74 179.907 59.516C180.243 59.292 180.504 58.9887 180.691 58.606C180.877 58.2233 180.971 57.7893 180.971 57.304C180.971 56.8187 180.877 56.3847 180.691 56.002C180.504 55.6193 180.243 55.316 179.907 55.092C179.571 54.868 179.183 54.756 178.745 54.756C178.315 54.756 177.933 54.868 177.597 55.092C177.27 55.316 177.009 55.6193 176.813 56.002C176.626 56.3847 176.533 56.8187 176.533 57.304C176.533 57.7893 176.626 58.2233 176.813 58.606C177.009 58.9887 177.27 59.292 177.597 59.516C177.933 59.74 178.315 59.852 178.745 59.852ZM196.092 61.14C195.317 61.14 194.645 60.9813 194.076 60.664C193.507 60.3373 193.063 59.894 192.746 59.334C192.438 58.7647 192.284 58.116 192.284 57.388C192.284 56.5667 192.447 55.8667 192.774 55.288C193.11 54.7 193.544 54.252 194.076 53.944C194.608 53.6267 195.173 53.468 195.77 53.468C196.227 53.468 196.661 53.5613 197.072 53.748C197.483 53.9253 197.847 54.1773 198.164 54.504C198.491 54.8213 198.747 55.1993 198.934 55.638C199.121 56.0673 199.219 56.5387 199.228 57.052C199.219 57.2387 199.144 57.3927 199.004 57.514C198.864 57.6353 198.701 57.696 198.514 57.696H193.068L192.732 56.506H197.996L197.73 56.758V56.408C197.711 56.0813 197.604 55.7967 197.408 55.554C197.212 55.302 196.969 55.1107 196.68 54.98C196.391 54.84 196.087 54.77 195.77 54.77C195.49 54.77 195.219 54.8167 194.958 54.91C194.706 54.994 194.477 55.134 194.272 55.33C194.076 55.526 193.917 55.7873 193.796 56.114C193.684 56.4313 193.628 56.828 193.628 57.304C193.628 57.8173 193.735 58.2653 193.95 58.648C194.165 59.0307 194.454 59.3293 194.818 59.544C195.182 59.7493 195.583 59.852 196.022 59.852C196.367 59.852 196.652 59.8193 196.876 59.754C197.1 59.6793 197.287 59.5907 197.436 59.488C197.585 59.3853 197.716 59.2873 197.828 59.194C197.968 59.11 198.108 59.068 198.248 59.068C198.416 59.068 198.556 59.1287 198.668 59.25C198.78 59.362 198.836 59.4973 198.836 59.656C198.836 59.8613 198.733 60.048 198.528 60.216C198.276 60.4587 197.926 60.6733 197.478 60.86C197.039 61.0467 196.577 61.14 196.092 61.14Z" fill="#1F2937"/>
</g>
<defs>
<clipPath id="clip0_0_1">
<rect width="200" height="14" fill="white" transform="translate(0 49)"/>
</clipPath>
</defs>
</svg>
